<svg xmlns="http://www.w3.org/2000/svg">
  <symbol id="icon-excavator" viewBox="0 0 24 24">
    <path d="M3 16h14a3 3 0 0 1 3 3v1H8a5 5 0 0 1-5-4Z" fill="currentColor" />
    <circle cx="8" cy="20" r="2" fill="currentColor" />
    <circle cx="17" cy="20" r="2" fill="currentColor" />
    <path d="M9 10V7a2 2 0 0 1 2-2h2l3 3h3v2h-4l-3-3h-1v3Z" fill="currentColor" />
    <path d="m15 10 4 2 2 4-2 1-1.5-3-3.5-2Z" fill="currentColor" />
  </symbol>
  <symbol id="icon-phone" viewBox="0 0 24 24">
    <path d="M6.6 3h3.1l1.2 4.2-1.9 1.9a15.6 15.6 0 0 0 5.9 5.9l1.9-1.9L21 14.3v3.1A2.6 2.6 0 0 1 18.4 20C10.5 20 4 13.5 4 5.6A2.6 2.6 0 0 1 6.6 3Z" fill="currentColor" />
  </symbol>
  <symbol id="icon-email" viewBox="0 0 24 24">
    <path d="M3 6h18v12H3Z" fill="none" stroke="currentColor" stroke-width="2" />
    <path d="m4 7 8 6 8-6" fill="none" stroke="currentColor" stroke-width="2" />
  </symbol>
  <symbol id="icon-location" viewBox="0 0 24 24">
    <path d="M12 21s6-5.7 6-11a6 6 0 1 0-12 0c0 5.3 6 11 6 11Z" fill="none" stroke="currentColor" stroke-width="2" />
    <circle cx="12" cy="10" r="2.5" fill="currentColor" />
  </symbol>
  <symbol id="icon-clock" viewBox="0 0 24 24">
    <circle cx="12" cy="12" r="9" fill="none" stroke="currentColor" stroke-width="2" />
    <path d="M12 7v6l4 2" fill="none" stroke="currentColor" stroke-width="2" stroke-linecap="round" />
  </symbol>
  <symbol id="icon-whatsapp" viewBox="0 0 24 24">
    <path d="M12 3a9 9 0 0 0-7.8 13.5L3 21l4.7-1.2A9 9 0 1 0 12 3Z" fill="none" stroke="currentColor" stroke-width="2" />
    <path d="M9.1 8.3c.2-.4.4-.4.7-.4h.6c.2 0 .4 0 .5.4l.8 2c.1.3.1.5-.1.7l-.6.8c-.1.1-.2.3 0 .6.4.8 1.4 1.7 2.5 2.2.3.2.5.1.6 0l.8-.9c.2-.2.4-.3.7-.1l1.9.9c.3.1.4.3.4.5v.6c0 .3-.1.5-.4.7-.5.4-1.2.6-1.9.5-1.1-.2-2.5-.9-4.1-2.5-1.6-1.6-2.3-3-2.5-4.1-.1-.7.1-1.4.5-1.9Z" fill="currentColor" />
  </symbol>
  <symbol id="icon-construction" viewBox="0 0 24 24">
    <path d="M4 19h16" fill="none" stroke="currentColor" stroke-width="2" stroke-linecap="round" />
    <path d="M7 19V9l5-4 5 4v10" fill="none" stroke="currentColor" stroke-width="2" />
    <path d="M10 12h4" fill="none" stroke="currentColor" stroke-width="2" />
  </symbol>
  <symbol id="icon-terrain" viewBox="0 0 24 24">
    <path d="M3 16c2-2 4-2 6 0s4 2 6 0 4-2 6 0" fill="none" stroke="currentColor" stroke-width="2" stroke-linecap="round" />
    <path d="M3 11c2-2 4-2 6 0s4 2 6 0 4-2 6 0" fill="none" stroke="currentColor" stroke-width="2" stroke-linecap="round" />
  </symbol>
  <symbol id="icon-cable" viewBox="0 0 24 24">
    <path d="M6 7v5a6 6 0 0 0 12 0V7" fill="none" stroke="currentColor" stroke-width="2" />
    <path d="M9 4v3M15 4v3" fill="none" stroke="currentColor" stroke-width="2" stroke-linecap="round" />
    <path d="M9 17h6" fill="none" stroke="currentColor" stroke-width="2" stroke-linecap="round" />
  </symbol>
  <symbol id="icon-garden" viewBox="0 0 24 24">
    <path d="M12 21V9" fill="none" stroke="currentColor" stroke-width="2" stroke-linecap="round" />
    <path d="M12 9c0-3 2-5 5-5 0 3-2 5-5 5ZM12 13c0-3-2-5-5-5 0 3 2 5 5 5Z" fill="none" stroke="currentColor" stroke-width="2" />
  </symbol>
  <symbol id="icon-ruler" viewBox="0 0 24 24">
    <path d="m5 19 14-14 2 2-14 14H5Z" fill="none" stroke="currentColor" stroke-width="2" />
    <path d="M14 6l4 4M11 9l2 2M8 12l2 2" fill="none" stroke="currentColor" stroke-width="2" />
  </symbol>
  <symbol id="icon-truck" viewBox="0 0 24 24">
    <path d="M3 7h11v8H3Z" fill="none" stroke="currentColor" stroke-width="2" />
    <path d="M14 10h3l3 3v2h-6Z" fill="none" stroke="currentColor" stroke-width="2" />
    <circle cx="7" cy="18" r="2" fill="currentColor" />
    <circle cx="17" cy="18" r="2" fill="currentColor" />
  </symbol>
  <symbol id="icon-house" viewBox="0 0 24 24">
    <path d="M4 11 12 5l8 6" fill="none" stroke="currentColor" stroke-width="2" stroke-linecap="round" stroke-linejoin="round" />
    <path d="M6 10v9h12v-9" fill="none" stroke="currentColor" stroke-width="2" />
  </symbol>
  <symbol id="icon-money" viewBox="0 0 24 24">
    <rect x="3" y="6" width="18" height="12" rx="2" fill="none" stroke="currentColor" stroke-width="2" />
    <circle cx="12" cy="12" r="3" fill="none" stroke="currentColor" stroke-width="2" />
  </symbol>
  <symbol id="icon-key" viewBox="0 0 24 24">
    <circle cx="8" cy="12" r="4" fill="none" stroke="currentColor" stroke-width="2" />
    <path d="M12 12h9M18 12v-2M20 12v2" fill="none" stroke="currentColor" stroke-width="2" stroke-linecap="round" />
  </symbol>
  <symbol id="icon-compact" viewBox="0 0 24 24">
    <rect x="5" y="6" width="14" height="12" rx="2" fill="none" stroke="currentColor" stroke-width="2" />
    <path d="M9 9h6v6H9Z" fill="currentColor" />
  </symbol>
  <symbol id="icon-lightning" viewBox="0 0 24 24">
    <path d="M13 2 6 13h5l-1 9 8-12h-5l1-8Z" fill="currentColor" />
  </symbol>
  <symbol id="icon-handshake" viewBox="0 0 24 24">
    <path d="m7 12 3 3c.7.7 1.8.7 2.5 0l4.5-4.5c.7-.7 1.8-.7 2.5 0L22 13l-4 4c-1.6 1.6-4.1 1.6-5.7 0l-1.3-1.3-1.3 1.3C8.1 18.6 5.6 18.6 4 17l-2-2 5-5Z" fill="none" stroke="currentColor" stroke-width="2" stroke-linejoin="round" />
    <path d="m2 15 4-4" fill="none" stroke="currentColor" stroke-width="2" stroke-linecap="round" />
  </symbol>
  <symbol id="icon-fire" viewBox="0 0 24 24">
    <path d="M13 3c1 3-2 4-2 7 0 2 2 2 2 4 0 1.7-1.3 3-3 3s-3-1.3-3-3c0-4 3-5 3-9 0-1.4-.4-2.2-1-3 4 1.3 7 4.6 7 9.2A6 6 0 0 1 10 21a6 6 0 0 0 9-5.2c0-4.1-2-6.7-6-12.8Z" fill="currentColor" />
  </symbol>
</svg>
